Coordinates
version=1
nRows=32
nColumns=11
inDegrees=yes

Units are S.I. units (second, meters, Newtons, ...)
If the header above contains a line with 'inDegrees', this indicates whether rotational values are in degrees (yes) or radians (no).

endheader
time	pelvis_tilt	pelvis_tx	pelvis_ty	hip_flexion_l	hip_flexion_r	knee_angle_l	knee_angle_r	ankle_angle_l	ankle_angle_r	lumbar_extension
      4.20000000	     -0.96265487	      1.42018880	      0.90612804	     -7.83329333	     36.02520457	    -10.14815600	    -32.42833469	     13.55281855	      6.23364156	    -18.82401809
      4.21000000	     -0.53587212	      1.43218939	      0.90298649	     -9.03673610	     35.96815048	    -10.40894559	    -29.94433755	     14.54254715	      6.15328857	    -19.29085177
      4.22000000	     -0.16461994	      1.44451745	      0.89958859	    -10.22429596	     35.89887667	    -10.63490424	    -27.67856534	     15.41956916	      6.38446478	    -19.65975317
      4.23000000	      0.09807134	      1.45701943	      0.89576745	    -11.28965124	     35.93237660	    -10.91474304	    -25.64181487	     16.39197288	      6.12379208	    -19.88269643
      4.24000000	      0.36078552	      1.46987466	      0.89188142	    -12.34013998	     35.91471986	    -11.30257060	    -23.76668151	     17.33853641	      5.80673794	    -20.04648040
      4.25000000	      0.60138216	      1.48309218	      0.88788668	    -13.45124488	     35.89319138	    -11.54184864	    -22.27156818	     18.08511541	      5.39948019	    -20.14106280
      4.26000000	      0.93436968	      1.49676771	      0.88400535	    -14.61535577	     35.75714900	    -11.90947300	    -21.17354100	     18.90156205	      5.16813562	    -20.27750058
      4.27000000	      1.16564458	      1.51075505	      0.88009534	    -15.60727506	     35.71065488	    -12.43958714	    -20.34432430	     19.38371910	      4.75704943	    -20.24283660
      4.28000000	      1.40222315	      1.52525521	      0.87619858	    -16.52859885	     35.59320267	    -13.14716380	    -19.89050298	     19.74753202	      4.38231816	    -20.14116204
      4.29000000	      1.55129753	      1.54023358	      0.87222620	    -17.25878443	     35.42933807	    -14.12238828	    -19.51695014	     20.07341313	      3.93575328	    -19.86301485
      4.30000000	      1.70359913	      1.55557571	      0.86823757	    -17.95753089	     35.04040760	    -15.18184751	    -19.13912167	     20.09777133	      2.34603238	    -19.55492153
      4.31000000	      1.26873545	      1.57020809	      0.86432018	    -17.63243539	     35.25537601	    -16.85571364	    -19.50756161	     19.95653569	     -3.22692483	    -18.66218047
      4.32000000	      0.59356914	      1.58407315	      0.86083516	    -16.79346374	     36.05901806	    -18.89390930	    -21.57467756	     19.47517584	     -5.60640538	    -17.61987127
      4.33000000	      0.15735922	      1.59796460	      0.85798545	    -16.12011718	     37.14916738	    -21.09971428	    -23.98614675	     18.50053407	     -6.97710737	    -16.86179705
      4.34000000	     -0.30605533	      1.61140261	      0.85588186	    -15.24404158	     38.33833231	    -23.45978919	    -25.99516325	     17.52917010	     -8.71874460	    -16.18250704
      4.35000000	     -0.57672968	      1.62460876	      0.85478094	    -14.47520214	     39.17913900	    -25.84178741	    -28.29210019	     15.94220111	     -9.84903591	    -15.79710330
      4.36000000	     -0.64393399	      1.63785276	      0.85439284	    -13.82843157	     39.45807449	    -28.24669790	    -30.33039388	     14.24768326	     -9.91130291	    -15.63164206
      4.37000000	     -0.76865334	      1.65098589	      0.85444614	    -12.94789942	     39.55453194	    -30.74534528	    -31.74992479	     12.11706204	     -9.48895091	    -15.42215923
      4.38000000	     -0.96307509	      1.66387171	      0.85486457	    -11.84656932	     39.57775087	    -33.27507825	    -32.98067745	      9.89366915	     -8.58194359	    -15.15097314
      4.39000000	     -1.35894819	      1.67646883	      0.85558830	    -10.40849599	     39.69014454	    -35.85417331	    -34.17743355	      7.49982766	     -7.19116513	    -14.66359623
      4.40000000	     -1.60996678	      1.68892140	      0.85685751	     -9.06205815	     39.41781089	    -38.36111134	    -34.97468092	      5.04151249	     -5.96374952	    -14.35673346
      4.41000000	     -1.81419359	      1.70109377	      0.85865405	     -7.75770355	     38.99313814	    -40.58988332	    -35.49610759	      2.87713349	     -5.10438694	    -14.11134893
      4.42000000	     -2.11332496	      1.71260640	      0.86091575	     -6.19469969	     38.51304932	    -42.67637252	    -35.70117032	      0.96865918	     -4.04856434	    -13.81029165
      4.43000000	     -2.53075750	      1.72351418	      0.86316328	     -4.38749837	     38.15620266	    -44.69253251	    -35.76442161	     -0.20257569	     -3.28188516	    -13.39471137
      4.44000000	     -3.03199166	      1.73404251	      0.86566550	     -2.45950745	     37.78975577	    -46.36146262	    -35.59161357	     -1.48888058	     -2.64079570	    -12.91817036
      4.45000000	     -3.38360333	      1.74428311	      0.86842841	     -0.65639889	     37.27623904	    -47.75608549	    -35.41434410	     -1.59918135	     -2.30638017	    -12.61358167
      4.46000000	     -3.69580434	      1.75435025	      0.87164768	      1.14403275	     36.67357151	    -48.83659088	    -35.09687804	     -2.73740046	     -1.74390721	    -12.36174924
      4.47000000	     -3.85456402	      1.76446892	      0.87502506	      2.82249239	     35.85845436	    -49.87584279	    -34.70393078	     -3.67399252	     -1.25759315	    -12.26343695
      4.48000000	     -3.99892632	      1.77439893	      0.87850810	      4.59796998	     34.97264178	    -51.02677554	    -34.18803336	     -4.20665539	     -0.88158148	    -12.18273210
      4.49000000	     -4.02094101	      1.78432224	      0.88231110	      6.27150193	     33.85808384	    -52.01971698	    -33.49774654	     -4.25933107	     -0.50643883	    -12.24634407
      4.50000000	     -4.15146362	      1.79408384	      0.88599358	      8.11136992	     32.85711170	    -52.87735825	    -32.74201757	     -4.19154837	     -0.32035358	    -12.15340401
      4.51000000	     -4.16484857	      1.80382260	      0.88977866	      9.84660949	     31.66062802	    -53.71272499	    -31.87310239	     -4.14669029	      0.07605335	    -12.20104790
